PathFileType	4	(X/Y/Z)	Kaydara																																																																																																																									
DataRate	CameraRate	NumFrames	NumMarkers	Units	OrigDataRate	OrigDataStartFrame	OrigNumFrames																																																																																																																					
30	30	9	41	mm	30	194	258																																																																																																																					
Frame#	Time	SALE_LFHD			SALE_RFHD			SALE_LBHD			SALE_RBHD			SALE_LFTShould			SALE_RFTShould			SALE_LRRShould			SALE_RRRShould			SALE_T10			SALE_STRN			SALE_TRUN			SALE_LSHO			SALE_LUPA			SALE_LELB			SALE_LFRM			SALE_LWRA			SALE_LWRB			SALE_LFIN			SALE_RSHO			SALE_RUPA			SALE_RELB			SALE_RFRM			SALE_RWRB			SALE_RFIN			SALE_LFWT			SALE_RFWT			SALE_LBWT			SALE_RBWT			SALE_LTHI			SALE_LKNE			SALE_RWRA			SALE_LSHN			SALE_LANK			SALE_LHEE			SALE_LTOE			SALE_RTHI			SALE_RKNE			SALE_RSHN			SALE_RANK			SALE_RHEE			SALE_RTOE		
		X1	Y1	Z1	X2	Y2	Z2	X3	Y3	Z3	X4	Y4	Z4	X5	Y5	Z5	X6	Y6	Z6	X7	Y7	Z7	X8	Y8	Z8	X9	Y9	Z9	X10	Y10	Z10	X11	Y11	Z11	X12	Y12	Z12	X13	Y13	Z13	X14	Y14	Z14	X15	Y15	Z15	X16	Y16	Z16	X17	Y17	Z17	X18	Y18	Z18	X19	Y19	Z19	X20	Y20	Z20	X21	Y21	Z21	X22	Y22	Z22	X23	Y23	Z23	X24	Y24	Z24	X25	Y25	Z25	X26	Y26	Z26	X27	Y27	Z27	X28	Y28	Z28	X29	Y29	Z29	X30	Y30	Z30	X31	Y31	Z31	X32	Y32	Z32	X33	Y33	Z33	X34	Y34	Z34	X35	Y35	Z35	X36	Y36	Z36	X37	Y37	Z37	X38	Y38	Z38	X39	Y39	Z39	X40	Y40	Z40	X41	Y41	Z41
																																																																																																																												
194	6.443	214.4721	1551.18195	1099.92043	85.32229	1559.75418	1117.39143	196.9426	1582.3819	972.51793	72.60815	1587.42981	994.52187	204.01041	1318.45993	1010.02121	63.56061	1310.79926	1018.13667	191.38119	1388.00644	903.964	40.23097	1385.40833	919.18503	116.35841	1239.07455	829.9942	135.68596	1240.00732	1055.93811	139.32692	1150.64125	1088.5379	315.33009	1356.13449	938.96812	363.30814	1141.43394	935.60379	354.80206	1027.9332	929.11575	387.77565	929.46434	976.81053	334.26571	807.76344	1075.73372	397.72896	792.93739	1033.31367	400.20058	764.83421	1090.55832	-48.29686	1342.0134	962.96722	-75.26196	1122.09358	876.16585	-106.4316	1017.70187	908.03391	-101.40862	906.13731	886.80176	-120.93159	765.12787	916.297	-127.92048	718.46588	965.12001	269.88861	913.60588	1010.72189	-6.02541	916.85028	1034.62555	195.43518	973.05809	848.2795	15.37326	974.75494	858.59627	232.30848	650.68146	795.30235	229.15718	466.38676	827.15546	-74.85573	769.81796	976.07124	213.8555	276.90321	749.86671	197.09761	123.60678	636.91433	152.58292	93.68459	563.01044	178.45774	55.32726	750.88776	-27.07596	646.07414	942.43912	12.72544	522.22111	1091.54243	72.27252	342.9504	1127.13913	38.38145	88.00861	1154.60274	50.60617	46.70536	1281.96793	89.09937	30.75524	1094.2408
195	6.477	210.07013	1556.29883	1127.69737	81.12015	1565.01602	1146.11771	191.71	1588.31818	1000.68123	67.65779	1593.34213	1023.53111	200.4504	1326.2059	1038.88191	60.16088	1316.88904	1047.15523	186.61751	1393.17169	931.74446	35.99953	1388.81439	947.32864	113.63341	1242.01149	860.28885	133.14445	1247.95616	1086.44012	138.04623	1159.46358	1121.1853	311.2079	1363.45901	966.63506	357.59331	1147.99164	961.84357	347.32956	1035.24612	954.3605	380.83405	934.98772	994.71397	328.22315	805.1725	1083.66013	391.35212	794.21875	1039.58511	394.18961	760.72746	1093.97888	-52.04075	1345.80811	991.69502	-79.09403	1124.30031	910.37766	-110.43696	1020.70992	944.67567	-106.12498	908.92052	925.12245	-126.16791	768.38814	956.67091	-132.89668	722.41623	1006.19049	267.79373	916.67717	1046.95114	-7.80345	928.47244	1069.84383	196.36162	977.20589	884.10538	17.12245	985.10948	893.29033	225.50385	649.76692	835.9726	227.22296	465.71903	870.80139	-79.28657	773.44803	1015.91743	213.80413	280.31567	778.02155	199.89479	137.54396	651.46553	156.05958	115.49314	575.12775	179.76807	53.70967	756.54663	-34.34116	659.25194	971.14067	10.39693	528.1897	1108.27873	68.44434	344.19151	1133.72704	35.20207	87.26909	1152.96623	47.77332	45.66721	1281.17554	87.93903	30.34769	1093.74413
196	6.51	205.37191	1563.29712	1155.16273	76.46388	1571.14288	1173.81668	186.47556	1595.12421	1028.15224	62.45666	1599.29474	1051.32103	198.04987	1335.45792	1068.28308	57.87431	1324.68704	1076.20262	182.73468	1399.04526	959.8439	32.83884	1393.1308	975.0515	111.56585	1246.12755	890.38345	130.85152	1257.71629	1116.86203	136.34631	1169.9794	1153.37143	307.79202	1372.64679	994.98528	353.61855	1156.85631	987.70264	339.7678	1045.12856	977.69478	374.01909	943.5405	1011.07124	321.57768	806.62369	1089.84459	384.52068	799.57176	1044.73671	386.61858	760.06149	1095.5336	-54.61744	1351.39572	1020.53047	-82.5844	1129.18289	944.37263	-114.57147	1026.44913	981.06918	-111.17988	913.92326	964.00963	-131.75529	774.34822	999.06822	-138.34021	729.21158	1049.31496	265.02399	922.42264	1081.22192	-10.83235	935.56259	1102.20993	194.39743	981.8161	917.556	16.02559	991.68411	924.92233	220.34567	644.29474	881.96213	227.92158	461.86733	924.09203	-84.51227	780.38254	1057.82883	216.31048	282.75803	813.21404	202.11292	154.00505	672.41539	157.25134	142.21315	595.31059	180.25057	50.95968	764.01344	-38.81908	666.05766	990.81451	2.27098	529.15283	1121.97815	62.75963	345.35988	1142.56897	32.61779	86.40986	1149.93454	46.48471	45.13206	1280.76019	85.56576	29.66569	1092.77817
197	6.543	200.62914	1569.75647	1181.5229	71.59124	1575.80566	1199.90242	181.53698	1599.4516	1054.26979	57.36012	1601.94504	1077.14211	196.04055	1341.89423	1097.94037	56.13702	1329.95758	1105.50911	179.78016	1402.67792	988.64143	30.46401	1396.22391	1004.1967	108.84523	1249.1539	920.15503	128.83718	1264.18732	1146.838	134.57132	1176.68411	1183.93295	305.15118	1378.64075	1024.01558	351.4415	1163.24745	1013.26477	334.80949	1052.45728	999.5224	368.99609	949.55612	1027.34657	315.91923	808.12294	1097.63222	378.41698	803.43613	1051.95396	378.66936	758.15765	1098.32664	-56.50217	1355.73822	1050.72311	-86.36342	1133.28194	977.80327	-119.2562	1031.1261	1016.66298	-116.74857	917.7388	1003.14575	-137.49239	779.4532	1042.89314	-143.9054	735.90126	1094.7596	261.24693	926.08681	1112.9528	-15.4959	938.67432	1131.16409	190.98314	983.73703	947.58583	13.43056	994.96964	954.66103	218.74498	633.66314	928.84773	230.45816	454.86248	983.44177	-89.65431	787.23175	1101.26694	220.609	284.45354	855.9771	205.59778	170.71657	703.20732	160.89453	170.61367	626.95866	179.36287	47.42223	775.14397	-39.23497	671.35254	1009.36043	-0.23102	529.81972	1140.36652	61.23346	345.42164	1154.62746	33.40475	86.72725	1153.63495	47.03587	44.37822	1281.94168	86.29234	30.28663	1093.50449
198	6.577	196.30083	1574.39789	1207.61238	67.11751	1578.52356	1225.31273	177.148	1600.51895	1079.55826	52.90684	1601.32797	1101.91536	194.19512	1342.70447	1126.92345	54.74408	1330.94864	1135.17639	178.04745	1403.55652	1018.02498	28.76952	1397.71606	1034.02557	106.09016	1250.64682	949.18564	127.0618	1265.0045	1175.91095	132.41025	1177.14928	1212.41112	303.46384	1379.16733	1053.41927	349.77715	1164.29489	1038.19519	332.87495	1054.23218	1020.05302	366.16093	950.54283	1044.31076	311.21332	806.76544	1107.33566	375.09106	803.52715	1062.68211	371.26736	753.5746	1105.43716	-58.1727	1357.66296	1081.1702	-91.62652	1134.41925	1011.00418	-124.67071	1033.07587	1052.21039	-122.91397	918.92548	1042.16896	-143.00012	782.08008	1087.47452	-148.76451	741.05911	1141.2307	257.16312	925.48523	1140.22972	-21.03765	939.65302	1156.75369	189.56568	981.20506	974.3808	12.03633	995.12268	981.65123	218.83734	619.87743	976.06537	233.63605	447.27619	1043.91533	-93.89851	791.73981	1144.23546	224.01144	284.66509	906.66756	210.47644	185.0635	745.30243	168.02742	199.02542	671.10703	178.99035	48.72865	794.79263	-40.12713	672.73048	1033.3165	-4.26387	530.24044	1156.15913	59.20552	345.20237	1166.05843	34.3268	86.66556	1155.07652	47.872	44.0528	1282.62024	87.17825	30.63109	1093.9875
199	6.61	192.5746	1576.9075	1234.11942	63.3621	1579.24973	1251.18042	173.56264	1599.56802	1105.44777	49.19985	1598.8858	1127.33482	192.74477	1339.30939	1154.2775	53.14948	1329.05426	1163.89709	177.1731	1402.78717	1046.42258	27.46415	1398.18069	1063.88168	103.43192	1251.13297	976.66031	125.90111	1260.98587	1202.67258	130.81372	1172.8035	1238.32909	302.45874	1375.81757	1081.2793	348.15857	1160.88013	1060.70923	331.63429	1051.41983	1039.11057	364.04991	946.97098	1061.27586	307.13703	802.36015	1118.74352	372.09976	799.54994	1075.7605	365.00061	747.4147	1116.38733	-59.65708	1357.85309	1111.43356	-97.83978	1132.62039	1044.00986	-130.35292	1032.44949	1088.60123	-128.88835	917.96516	1081.74339	-147.93806	782.60628	1132.18384	-152.9585	744.72	1188.125	255.28973	924.40353	1165.91957	-23.08093	942.33292	1182.23045	189.74087	976.78055	998.57635	12.20121	995.42686	1006.25122	220.14067	609.29058	1024.40147	235.65624	442.59472	1107.54257	-97.46884	794.42139	1187.48062	226.54789	288.1366	962.84256	213.90591	199.67621	795.02159	171.17527	218.23555	721.99593	186.51461	60.65064	835.12238	-43.20483	676.65863	1052.74979	-8.74183	530.3109	1170.33348	55.6292	345.03895	1174.21204	33.09854	86.4281	1155.61501	47.55848	43.81559	1282.48444	86.56698	30.56673	1093.72353
200	6.643	189.69292	1577.55325	1261.64818	60.39004	1577.89871	1277.94548	170.87837	1598.42575	1132.46712	46.45984	1595.99884	1153.98186	192.12645	1335.28	1179.83925	52.70649	1326.18042	1191.59325	176.33204	1401.66916	1073.23891	26.37291	1398.63632	1092.49939	100.19289	1251.76025	1002.33711	125.81313	1256.44669	1227.9084	130.79737	1167.69096	1262.14226	301.78562	1371.80695	1105.6813	346.07582	1156.72356	1080.66536	329.7414	1047.36977	1057.80937	361.32961	942.48589	1078.11607	302.95809	797.2905	1132.16713	368.61267	794.90204	1089.99878	361.25927	742.84081	1130.26123	-60.34997	1357.54715	1139.9707	-103.63161	1130.07965	1077.80937	-134.9136	1031.46118	1126.11496	-134.02835	916.94527	1121.96976	-152.47417	783.1115	1176.60179	-156.19088	748.07648	1234.35379	254.32383	924.64378	1190.23346	-22.86721	944.26003	1208.07846	189.04148	975.44739	1022.44186	11.42662	996.49475	1031.13197	221.65142	602.18845	1073.18634	235.35101	443.12092	1171.14807	-99.99213	796.10085	1229.58893	227.3427	291.04502	1024.10919	215.59319	206.84204	853.78403	171.36511	224.6719	780.17281	194.68168	69.55597	894.97192	-47.43563	682.03552	1071.13625	-10.74547	530.20779	1184.54002	54.90815	344.84974	1181.68495	32.12026	86.47051	1156.37932	47.39033	43.72272	1282.27585	85.80226	30.48122	1093.31703
201	6.677	187.64051	1577.05475	1290.61859	58.19191	1575.08011	1305.86441	169.35125	1598.82874	1161.47926	44.85188	1594.20807	1182.03842	192.77657	1333.64487	1203.44261	53.23033	1325.67337	1217.26807	175.45952	1401.69907	1098.13042	25.71144	1399.85397	1119.39255	97.02599	1253.02513	1027.06032	126.61604	1255.27397	1251.91986	131.4884	1166.60484	1286.08536	301.27478	1370.05157	1127.4826	343.19065	1154.99382	1098.59741	326.07376	1045.82642	1075.58754	357.63367	940.49278	1094.6212	299.62881	794.87503	1148.56087	364.59614	792.95486	1105.45288	359.91203	742.39853	1146.65192	-60.50177	1358.73367	1167.76138	-107.52756	1129.30229	1111.40045	-137.41827	1032.57111	1164.26109	-137.42949	918.18069	1162.36053	-155.3791	785.69756	1220.27878	-157.79099	752.58049	1279.18365	252.63859	925.96489	1214.36722	-23.93447	943.96149	1231.73744	187.65345	975.9446	1046.11336	9.89443	996.88515	1055.15198	223.21533	598.78208	1119.32755	232.57551	447.90756	1231.036	-101.1129	799.00276	1270.8078	226.29223	291.81311	1088.53333	217.11821	204.10181	919.8703	172.81017	217.8042	843.60184	199.80562	72.39675	969.66637	-46.74518	682.64618	1088.90785	-10.6077	530.25085	1197.95006	54.1921	344.12766	1190.18723	32.7456	86.67289	1156.27892	47.40784	43.63668	1282.19269	86.3083	30.54763	1093.24516
202	6.71	186.6367	1575.66345	1320.60547	57.16771	1571.65985	1334.72153	168.83684	1601.35162	1192.04895	44.33225	1594.67072	1211.63086	193.80693	1335.38635	1226.26358	54.2646	1328.22617	1241.71829	174.59232	1402.8476	1121.53641	25.404	1402.01187	1144.60434	94.55186	1254.8452	1051.38344	127.31588	1257.8196	1275.39085	132.27327	1168.88832	1309.17938	300.76544	1371.01395	1148.134	340.01789	1156.11656	1116.08871	321.77601	1047.35435	1093.3577	353.6409	941.5316	1111.23291	298.20801	796.22849	1169.26025	360.30327	793.96637	1122.46078	359.4265	745.25421	1165.05531	-60.35639	1361.77155	1194.10423	-109.15555	1130.98526	1144.98741	-137.68184	1035.99655	1201.65062	-138.54406	921.79916	1201.78207	-156.46571	790.59341	1262.40891	-157.76492	758.43956	1321.84372	250.48765	928.3345	1238.55469	-26.64303	943.53119	1253.16269	187.58011	976.33804	1069.18045	9.70183	997.09991	1077.27707	225.3055	598.77846	1161.42799	227.4844	456.48529	1287.00165	-100.865	803.56125	1310.65063	223.53161	290.7847	1155.23331	218.6079	192.38571	992.33528	175.49656	197.90371	912.58347	201.54369	70.08932	1056.16554	-44.58284	683.65334	1106.10886	-9.26784	529.9604	1211.07559	55.16041	343.28197	1199.09584	33.60765	86.92545	1156.74911	47.34338	43.56142	1282.12402	87.18192	30.57175	1093.2872
